<svg width="21" height="20" viewBox="0 0 21 20" fill="none" xmlns="http://www.w3.org/2000/svg">
<g clip-path="url(#clip0_1839_4110)">
<path d="M10.5024 20C16.0253 20 20.5024 15.5228 20.5024 10C20.5024 4.47715 16.0253 0 10.5024 0C4.97959 0 0.502441 4.47715 0.502441 10C0.502441 15.5228 4.97959 20 10.5024 20Z" fill="#3EB0F0"/>
<path d="M13.0164 11.3275C13.0164 10 12.2164 9.545 10.6164 9.355C9.47391 9.20313 9.24579 8.9 9.24579 8.36875C9.24579 7.8375 9.62704 7.49625 10.3883 7.49625C11.0739 7.49625 11.4552 7.72375 11.6452 8.29313C11.665 8.34819 11.7012 8.39585 11.7489 8.42971C11.7966 8.46357 11.8535 8.482 11.912 8.4825H12.5214C12.5566 8.48344 12.5916 8.47722 12.6243 8.46422C12.6571 8.45122 12.6868 8.43171 12.7118 8.40688C12.7367 8.38204 12.7564 8.35239 12.7695 8.31973C12.7827 8.28707 12.7891 8.25208 12.7883 8.21688V8.17938C12.7138 7.76744 12.5054 7.39163 12.1954 7.11033C11.8854 6.82902 11.4911 6.65797 11.0739 6.62375V5.71375C11.0739 5.56188 10.9595 5.44813 10.7695 5.41H10.1977C10.0458 5.41 9.93141 5.52375 9.89329 5.71375V6.58625C8.75016 6.7375 8.02703 7.49625 8.02703 8.445C8.02703 9.69625 8.78829 10.1894 10.3883 10.3794C11.4552 10.5688 11.7977 10.7969 11.7977 11.4038C11.7977 12.01 11.2645 12.4275 10.5408 12.4275C9.55016 12.4275 9.20766 12.0106 9.09329 11.4413C9.05579 11.29 8.94079 11.2138 8.82641 11.2138H8.17891C8.14377 11.2129 8.10881 11.2192 8.07617 11.2322C8.04352 11.2453 8.01385 11.2648 7.98897 11.2896C7.96408 11.3144 7.94448 11.3441 7.93137 11.3767C7.91825 11.4093 7.91189 11.4442 7.91266 11.4794V11.5169C8.06454 12.4656 8.67454 13.1481 9.93141 13.3381V14.2488C9.93141 14.4 10.0458 14.5144 10.2358 14.5519H10.8077C10.9595 14.5519 11.0739 14.4381 11.112 14.2488V13.3375C12.2552 13.1481 13.0164 12.3513 13.0164 11.3269V11.3275Z" fill="white"/>
<path d="M8.56 15.3106C5.58875 14.2481 4.065 10.9481 5.17 8.0275C5.74125 6.43375 6.99812 5.22062 8.56 4.65125C8.7125 4.57562 8.78812 4.46187 8.78812 4.27188V3.74063C8.78812 3.58938 8.7125 3.47563 8.56 3.4375C8.52187 3.4375 8.44562 3.4375 8.4075 3.475C7.55027 3.7427 6.75446 4.17733 6.06589 4.75386C5.37732 5.33039 4.80959 6.03743 4.3954 6.83427C3.98121 7.63111 3.72873 8.50201 3.6525 9.39683C3.57628 10.2916 3.67781 11.1927 3.95125 12.0481C4.63625 14.1731 6.27437 15.8044 8.4075 16.4869C8.56 16.5625 8.7125 16.4869 8.75 16.335C8.78812 16.2975 8.78812 16.2587 8.78812 16.1831V15.6519C8.78812 15.5381 8.67437 15.3869 8.56 15.3106ZM12.5975 3.47562C12.445 3.39937 12.2925 3.47562 12.255 3.62687C12.2169 3.665 12.2169 3.70312 12.2169 3.77875V4.31C12.2169 4.46187 12.3306 4.61312 12.445 4.68937C15.4162 5.75187 16.94 9.05188 15.835 11.9725C15.2637 13.5662 14.0069 14.7794 12.445 15.3488C12.2925 15.4244 12.2169 15.5381 12.2169 15.7281V16.2594C12.2169 16.4106 12.2925 16.5244 12.445 16.5625C12.4831 16.5625 12.5594 16.5625 12.5975 16.525C13.4547 16.2573 14.2505 15.8227 14.9391 15.2461C15.6277 14.6696 16.1954 13.9626 16.6096 13.1657C17.0238 12.3689 17.2763 11.498 17.3525 10.6032C17.4287 9.70835 17.3272 8.80729 17.0537 7.95187C16.3687 5.78937 14.6925 4.15812 12.5975 3.47562Z" fill="white"/>
</g>
<defs>
<clipPath id="clip0_1839_4110">
<rect width="20" height="20" fill="white" transform="translate(0.502441)"/>
</clipPath>
</defs>
</svg>
