<?xml version="1.0" encoding="UTF-8" standalone="no"?>
<!-- Generator: Adobe Illustrator 26.3.1, SVG Export Plug-In . SVG Version: 6.00 Build 0)  -->

<svg
   version="1.1"
   id="Слой_1"
   x="0px"
   y="0px"
   viewBox="0 0 337.29002 226.76"
   xml:space="preserve"
   width="337.29001"
   height="226.75999"
   xmlns="http://www.w3.org/2000/svg"
   xmlns:svg="http://www.w3.org/2000/svg"><defs
   id="defs36" />
<style
   type="text/css"
   id="style1">
	.st0{fill:url(#SVGID_1_);}
	.st1{fill:url(#SVGID_00000112602867439706496550000006574206084834174654_);}
	.st2{fill:url(#SVGID_00000048499662230605934740000009335093166266354049_);}
</style>
<g
   id="g36"
   transform="translate(-185.68,-240.94)">
	<linearGradient
   id="SVGID_1_"
   gradientUnits="userSpaceOnUse"
   x1="148.6219"
   y1="286.25171"
   x2="520.26892"
   y2="488.487">
		<stop
   offset="0"
   style="stop-color:#C2912C"
   id="stop1" />
		<stop
   offset="0.0185"
   style="stop-color:#C5972C"
   id="stop2" />
		<stop
   offset="0.1208"
   style="stop-color:#D4B32F"
   id="stop3" />
		<stop
   offset="0.2248"
   style="stop-color:#E1C930"
   id="stop4" />
		<stop
   offset="0.33"
   style="stop-color:#EAD931"
   id="stop5" />
		<stop
   offset="0.4369"
   style="stop-color:#EFE330"
   id="stop6" />
		<stop
   offset="0.5484"
   style="stop-color:#F1E630"
   id="stop7" />
		<stop
   offset="0.6263"
   style="stop-color:#EFE230"
   id="stop8" />
		<stop
   offset="0.7208"
   style="stop-color:#E8D531"
   id="stop9" />
		<stop
   offset="0.8239"
   style="stop-color:#DCC130"
   id="stop10" />
		<stop
   offset="0.9323"
   style="stop-color:#CDA52E"
   id="stop11" />
		<stop
   offset="1"
   style="stop-color:#C2912C"
   id="stop12" />
	</linearGradient>
	<path
   class="st0"
   d="m 306.06,289.73 c -9.24,-3.27 -23.11,-4.86 -42.39,-4.86 h -8.72 c -14,0 -25.34,11.35 -25.34,25.34 v 44.12 8.94 h 8.94 11.63 8.94 v -8.94 -39.78 c 20.14,0.02 29.79,1.68 34.34,3.07 8.15,2.49 14.29,6.9 18.76,13.5 4.6,6.73 6.92,15.1 6.92,24.91 0,9.4 -2.05,17.02 -6.26,23.28 -4.06,6.02 -9.57,10.11 -16.81,12.49 -2.03,0.65 -6.17,1.57 -14.08,2.13 h -43.44 -8.94 v 4.54 c 0,14 11.35,25.34 25.34,25.34 h 22.12 c 16.72,0 29.59,-2.48 39.36,-7.6 9.89,-5.19 17.97,-13.25 24.03,-23.94 5.99,-10.5 9.03,-22.76 9.03,-36.42 0,-15.72 -3.82,-29.57 -11.37,-41.15 -7.63,-11.77 -18.42,-20.18 -32.06,-24.97 z"
   id="path12"
   style="fill:url(#SVGID_1_)" />
	
		<linearGradient
   id="SVGID_00000089540074111311898680000000198157618135158958_"
   gradientUnits="userSpaceOnUse"
   x1="185.4491"
   y1="218.57449"
   x2="557.09613"
   y2="420.80981">
		<stop
   offset="0"
   style="stop-color:#C2912C"
   id="stop13" />
		<stop
   offset="0.0185"
   style="stop-color:#C5972C"
   id="stop14" />
		<stop
   offset="0.1208"
   style="stop-color:#D4B32F"
   id="stop15" />
		<stop
   offset="0.2248"
   style="stop-color:#E1C930"
   id="stop16" />
		<stop
   offset="0.33"
   style="stop-color:#EAD931"
   id="stop17" />
		<stop
   offset="0.4369"
   style="stop-color:#EFE330"
   id="stop18" />
		<stop
   offset="0.5484"
   style="stop-color:#F1E630"
   id="stop19" />
		<stop
   offset="0.6263"
   style="stop-color:#EFE230"
   id="stop20" />
		<stop
   offset="0.7208"
   style="stop-color:#E8D531"
   id="stop21" />
		<stop
   offset="0.8239"
   style="stop-color:#DCC130"
   id="stop22" />
		<stop
   offset="0.9323"
   style="stop-color:#CDA52E"
   id="stop23" />
		<stop
   offset="1"
   style="stop-color:#C2912C"
   id="stop24" />
	</linearGradient>
	<path
   style="fill:url(#SVGID_00000089540074111311898680000000198157618135158958_)"
   d="m 453.71,284.86 h -22.12 c -16.72,0 -29.59,2.48 -39.36,7.6 -9.89,5.19 -17.97,13.25 -24.03,23.94 -5.99,10.5 -9.03,22.76 -9.03,36.42 0,15.72 3.82,29.57 11.37,41.15 7.64,11.76 18.42,20.17 32.06,24.97 9.24,3.27 23.11,4.86 42.39,4.86 h 8.72 c 14,0 25.34,-11.35 25.34,-25.34 v -44.12 -8.94 h -8.94 -11.63 -8.94 v 8.94 39.78 c -20.14,-0.02 -29.79,-1.68 -34.34,-3.06 -8.15,-2.49 -14.29,-6.9 -18.76,-13.5 -4.6,-6.73 -6.92,-15.1 -6.92,-24.91 0,-9.4 2.05,-17.02 6.26,-23.28 4.06,-6.02 9.57,-10.11 16.81,-12.49 2.03,-0.65 6.17,-1.57 14.08,-2.13 h 43.44 8.94 v -4.54 c 0,-14 -11.35,-25.35 -25.34,-25.35 z"
   id="path24" />
	
		<linearGradient
   id="SVGID_00000061443921632688336780000008567798830833318272_"
   gradientUnits="userSpaceOnUse"
   x1="167.03571"
   y1="252.4126"
   x2="538.6828"
   y2="454.64789">
		<stop
   offset="0"
   style="stop-color:#C2912C"
   id="stop25" />
		<stop
   offset="0.0185"
   style="stop-color:#C5972C"
   id="stop26" />
		<stop
   offset="0.1208"
   style="stop-color:#D4B32F"
   id="stop27" />
		<stop
   offset="0.2248"
   style="stop-color:#E1C930"
   id="stop28" />
		<stop
   offset="0.33"
   style="stop-color:#EAD931"
   id="stop29" />
		<stop
   offset="0.4369"
   style="stop-color:#EFE330"
   id="stop30" />
		<stop
   offset="0.5484"
   style="stop-color:#F1E630"
   id="stop31" />
		<stop
   offset="0.6263"
   style="stop-color:#EFE230"
   id="stop32" />
		<stop
   offset="0.7208"
   style="stop-color:#E8D531"
   id="stop33" />
		<stop
   offset="0.8239"
   style="stop-color:#DCC130"
   id="stop34" />
		<stop
   offset="0.9323"
   style="stop-color:#CDA52E"
   id="stop35" />
		<stop
   offset="1"
   style="stop-color:#C2912C"
   id="stop36" />
	</linearGradient>
	<path
   style="fill:url(#SVGID_00000061443921632688336780000008567798830833318272_)"
   d="M 454.89,240.94 H 253.76 c -37.54,0 -68.08,30.54 -68.08,68.07 v 90.62 c 0,37.54 30.54,68.07 68.08,68.07 h 201.13 c 37.54,0 68.08,-30.54 68.08,-68.07 v -90.62 c 0,-37.53 -30.54,-68.07 -68.08,-68.07 z m 49.7,158.7 c 0,27.4 -22.3,49.69 -49.7,49.69 H 253.76 c -27.4,0 -49.7,-22.29 -49.7,-49.69 v -90.62 c 0,-27.4 22.3,-49.69 49.7,-49.69 h 201.13 c 27.4,0 49.7,22.29 49.7,49.69 z"
   id="path36" />
</g>
</svg>
