<?xml version="1.0" encoding="UTF-8" standalone="no"?>
<!-- Generator: Adobe Illustrator 26.3.1, SVG Export Plug-In . SVG Version: 6.00 Build 0)  -->

<svg
   version="1.1"
   id="Слой_1"
   x="0px"
   y="0px"
   viewBox="0 0 374.35002 113.17"
   xml:space="preserve"
   width="374.35001"
   height="113.17"
   xmlns="http://www.w3.org/2000/svg"
   xmlns:svg="http://www.w3.org/2000/svg"><defs
   id="defs168" />
<style
   type="text/css"
   id="style1">
	.st0{fill:url(#SVGID_1_);}
	.st1{fill:url(#SVGID_00000032608381577328369360000001948575333531696529_);}
	.st2{fill:url(#SVGID_00000074422907800647923570000014716501931482854326_);}
	.st3{fill:url(#SVGID_00000171696612517987388110000000284245884824800932_);}
	.st4{fill:url(#SVGID_00000018937806500647467810000014100141900530811582_);}
	.st5{fill:url(#SVGID_00000173137900447011961260000004658082224594126742_);}
	.st6{fill:url(#SVGID_00000108999919728030160300000007766415864529928842_);}
	.st7{fill:url(#SVGID_00000117656729551295230870000004828174778746236035_);}
	.st8{fill:url(#SVGID_00000125596322084642522740000005090355298991039128_);}
	.st9{fill:url(#SVGID_00000009564120209652672250000011193814643963823778_);}
	.st10{fill:url(#SVGID_00000181064874987726809490000003470242143893539740_);}
	.st11{fill:url(#SVGID_00000086659780435110288030000016479467522040325249_);}
	.st12{fill:url(#SVGID_00000180367659941349112750000011650582710995629722_);}
	.st13{fill:url(#SVGID_00000160189733649564143120000010591481847893143690_);}
</style>
<g
   id="g168"
   transform="translate(-167.19,-298.01)">
	<g
   id="g36">
		<linearGradient
   id="SVGID_1_"
   gradientUnits="userSpaceOnUse"
   x1="172.8237"
   y1="268.24829"
   x2="549.76489"
   y2="374.13062">
			<stop
   offset="0"
   style="stop-color:#C2912C"
   id="stop1" />
			<stop
   offset="0.0185"
   style="stop-color:#C5972C"
   id="stop2" />
			<stop
   offset="0.1208"
   style="stop-color:#D4B32F"
   id="stop3" />
			<stop
   offset="0.2248"
   style="stop-color:#E1C930"
   id="stop4" />
			<stop
   offset="0.33"
   style="stop-color:#EAD931"
   id="stop5" />
			<stop
   offset="0.4369"
   style="stop-color:#EFE330"
   id="stop6" />
			<stop
   offset="0.5484"
   style="stop-color:#F1E630"
   id="stop7" />
			<stop
   offset="0.6263"
   style="stop-color:#EFE230"
   id="stop8" />
			<stop
   offset="0.7208"
   style="stop-color:#E8D531"
   id="stop9" />
			<stop
   offset="0.8239"
   style="stop-color:#DCC130"
   id="stop10" />
			<stop
   offset="0.9323"
   style="stop-color:#CDA52E"
   id="stop11" />
			<stop
   offset="1"
   style="stop-color:#C2912C"
   id="stop12" />
		</linearGradient>
		<polygon
   class="st0"
   points="515.47,373.2 518.53,373.2 538.13,373.2 541.2,373.2 541.2,370.13 541.2,366.09 541.2,363.02 538.13,363.02 518.53,363.02 515.47,363.02 515.47,366.09 515.47,370.13 "
   id="polygon12"
   style="fill:url(#SVGID_1_)" />
		
			<linearGradient
   id="SVGID_00000148623733454350916230000012160055144191915682_"
   gradientUnits="userSpaceOnUse"
   x1="168.37691"
   y1="285.75641"
   x2="545.31812"
   y2="391.6387">
			<stop
   offset="0"
   style="stop-color:#C2912C"
   id="stop13" />
			<stop
   offset="0.0185"
   style="stop-color:#C5972C"
   id="stop14" />
			<stop
   offset="0.1208"
   style="stop-color:#D4B32F"
   id="stop15" />
			<stop
   offset="0.2248"
   style="stop-color:#E1C930"
   id="stop16" />
			<stop
   offset="0.33"
   style="stop-color:#EAD931"
   id="stop17" />
			<stop
   offset="0.4369"
   style="stop-color:#EFE330"
   id="stop18" />
			<stop
   offset="0.5484"
   style="stop-color:#F1E630"
   id="stop19" />
			<stop
   offset="0.6263"
   style="stop-color:#EFE230"
   id="stop20" />
			<stop
   offset="0.7208"
   style="stop-color:#E8D531"
   id="stop21" />
			<stop
   offset="0.8239"
   style="stop-color:#DCC130"
   id="stop22" />
			<stop
   offset="0.9323"
   style="stop-color:#CDA52E"
   id="stop23" />
			<stop
   offset="1"
   style="stop-color:#C2912C"
   id="stop24" />
		</linearGradient>
		<polygon
   style="fill:url(#SVGID_00000148623733454350916230000012160055144191915682_)"
   points="515.47,391.93 518.53,391.93 537.96,391.93 541.03,391.93 541.03,388.87 541.03,384.82 541.03,381.75 537.96,381.75 518.53,381.75 515.47,381.75 515.47,384.82 515.47,388.87 "
   id="polygon24" />
		
			<linearGradient
   id="SVGID_00000029763192949122448380000007317972027904964512_"
   gradientUnits="userSpaceOnUse"
   x1="163.063"
   y1="302.99649"
   x2="540.00421"
   y2="408.87891">
			<stop
   offset="0"
   style="stop-color:#C2912C"
   id="stop25" />
			<stop
   offset="0.0185"
   style="stop-color:#C5972C"
   id="stop26" />
			<stop
   offset="0.1208"
   style="stop-color:#D4B32F"
   id="stop27" />
			<stop
   offset="0.2248"
   style="stop-color:#E1C930"
   id="stop28" />
			<stop
   offset="0.33"
   style="stop-color:#EAD931"
   id="stop29" />
			<stop
   offset="0.4369"
   style="stop-color:#EFE330"
   id="stop30" />
			<stop
   offset="0.5484"
   style="stop-color:#F1E630"
   id="stop31" />
			<stop
   offset="0.6263"
   style="stop-color:#EFE230"
   id="stop32" />
			<stop
   offset="0.7208"
   style="stop-color:#E8D531"
   id="stop33" />
			<stop
   offset="0.8239"
   style="stop-color:#DCC130"
   id="stop34" />
			<stop
   offset="0.9323"
   style="stop-color:#CDA52E"
   id="stop35" />
			<stop
   offset="1"
   style="stop-color:#C2912C"
   id="stop36" />
		</linearGradient>
		<path
   style="fill:url(#SVGID_00000029763192949122448380000007317972027904964512_)"
   d="m 518.53,400.49 h -3.07 v 3.07 4.05 3.07 h 3.07 19.43 3.07 v -3.07 -4.05 -3.07 h -3.07 z"
   id="path36" />
	</g>
	
		<linearGradient
   id="SVGID_00000150063812806825495460000006010925392234743218_"
   gradientUnits="userSpaceOnUse"
   x1="162.4939"
   y1="305.02261"
   x2="539.43512"
   y2="410.90491">
		<stop
   offset="0"
   style="stop-color:#C2912C"
   id="stop37" />
		<stop
   offset="0.0185"
   style="stop-color:#C5972C"
   id="stop38" />
		<stop
   offset="0.1208"
   style="stop-color:#D4B32F"
   id="stop39" />
		<stop
   offset="0.2248"
   style="stop-color:#E1C930"
   id="stop40" />
		<stop
   offset="0.33"
   style="stop-color:#EAD931"
   id="stop41" />
		<stop
   offset="0.4369"
   style="stop-color:#EFE330"
   id="stop42" />
		<stop
   offset="0.5484"
   style="stop-color:#F1E630"
   id="stop43" />
		<stop
   offset="0.6263"
   style="stop-color:#EFE230"
   id="stop44" />
		<stop
   offset="0.7208"
   style="stop-color:#E8D531"
   id="stop45" />
		<stop
   offset="0.8239"
   style="stop-color:#DCC130"
   id="stop46" />
		<stop
   offset="0.9323"
   style="stop-color:#CDA52E"
   id="stop47" />
		<stop
   offset="1"
   style="stop-color:#C2912C"
   id="stop48" />
	</linearGradient>
	<polygon
   style="fill:url(#SVGID_00000150063812806825495460000006010925392234743218_)"
   points="448.63,410.67 451.69,410.67 455.86,410.67 458.92,410.67 458.92,407.6 458.92,366.09 458.92,363.02 455.86,363.02 451.69,363.02 448.63,363.02 448.63,366.09 448.63,407.6 "
   id="polygon48" />
	
		<linearGradient
   id="SVGID_00000146465549655683574420000016666446073985559475_"
   gradientUnits="userSpaceOnUse"
   x1="180.7253"
   y1="240.1187"
   x2="557.6665"
   y2="346.00101">
		<stop
   offset="0"
   style="stop-color:#C2912C"
   id="stop49" />
		<stop
   offset="0.0185"
   style="stop-color:#C5972C"
   id="stop50" />
		<stop
   offset="0.1208"
   style="stop-color:#D4B32F"
   id="stop51" />
		<stop
   offset="0.2248"
   style="stop-color:#E1C930"
   id="stop52" />
		<stop
   offset="0.33"
   style="stop-color:#EAD931"
   id="stop53" />
		<stop
   offset="0.4369"
   style="stop-color:#EFE330"
   id="stop54" />
		<stop
   offset="0.5484"
   style="stop-color:#F1E630"
   id="stop55" />
		<stop
   offset="0.6263"
   style="stop-color:#EFE230"
   id="stop56" />
		<stop
   offset="0.7208"
   style="stop-color:#E8D531"
   id="stop57" />
		<stop
   offset="0.8239"
   style="stop-color:#DCC130"
   id="stop58" />
		<stop
   offset="0.9323"
   style="stop-color:#CDA52E"
   id="stop59" />
		<stop
   offset="1"
   style="stop-color:#C2912C"
   id="stop60" />
	</linearGradient>
	<path
   style="fill:url(#SVGID_00000146465549655683574420000016666446073985559475_)"
   d="m 493.05,340.49 c 4.8,-4.81 7.23,-10.74 7.23,-17.63 0,-6.95 -2.44,-12.89 -7.26,-17.66 -4.81,-4.76 -10.84,-7.18 -17.93,-7.18 v 0 c -4.4,0 -8.56,1.11 -12.34,3.31 -3.79,2.19 -6.83,5.27 -9.02,9.14 -2.18,3.86 -3.29,8.1 -3.29,12.6 0,6.8 2.44,12.67 7.25,17.47 4.81,4.79 10.78,7.21 17.74,7.21 6.88,-0.01 12.81,-2.45 17.62,-7.26 z m -27.98,-7.14 c -2.84,-2.82 -4.22,-6.19 -4.22,-10.3 0,-2.82 0.63,-5.29 1.91,-7.56 1.28,-2.24 3.03,-3.98 5.32,-5.32 2.3,-1.33 4.65,-1.98 7.19,-1.98 2.61,0 5.02,0.65 7.35,1.99 2.34,1.34 4.09,3.06 5.36,5.26 1.27,2.21 1.89,4.63 1.89,7.4 0,2.79 -0.62,5.25 -1.91,7.52 -1.27,2.24 -2.99,3.96 -5.26,5.25 -2.29,1.31 -4.72,1.94 -7.43,1.94 -4.01,0 -7.35,-1.37 -10.2,-4.2 z"
   id="path60" />
	
		<linearGradient
   id="SVGID_00000170976643856008424390000007654883745254494895_"
   gradientUnits="userSpaceOnUse"
   x1="176.567"
   y1="254.9221"
   x2="553.50818"
   y2="360.80441">
		<stop
   offset="0"
   style="stop-color:#C2912C"
   id="stop61" />
		<stop
   offset="0.0185"
   style="stop-color:#C5972C"
   id="stop62" />
		<stop
   offset="0.1208"
   style="stop-color:#D4B32F"
   id="stop63" />
		<stop
   offset="0.2248"
   style="stop-color:#E1C930"
   id="stop64" />
		<stop
   offset="0.33"
   style="stop-color:#EAD931"
   id="stop65" />
		<stop
   offset="0.4369"
   style="stop-color:#EFE330"
   id="stop66" />
		<stop
   offset="0.5484"
   style="stop-color:#F1E630"
   id="stop67" />
		<stop
   offset="0.6263"
   style="stop-color:#EFE230"
   id="stop68" />
		<stop
   offset="0.7208"
   style="stop-color:#E8D531"
   id="stop69" />
		<stop
   offset="0.8239"
   style="stop-color:#DCC130"
   id="stop70" />
		<stop
   offset="0.9323"
   style="stop-color:#CDA52E"
   id="stop71" />
		<stop
   offset="1"
   style="stop-color:#C2912C"
   id="stop72" />
	</linearGradient>
	<path
   style="fill:url(#SVGID_00000170976643856008424390000007654883745254494895_)"
   d="m 429.44,326.87 c 1.35,-0.26 2.54,-0.63 3.59,-1.09 2.55,-1.13 4.55,-2.84 5.93,-5.07 1.36,-2.17 2.06,-4.72 2.06,-7.56 0,-3.44 -1.02,-6.4 -3.04,-8.81 -1.97,-2.37 -4.56,-3.94 -7.7,-4.65 -1.88,-0.43 -5.18,-0.64 -10.06,-0.64 h -8.29 -3.07 v 3.06 4.05 3.07 h 3.07 4.16 6.37 0.97 c 3.34,0 4.59,0.36 4.98,0.51 0.66,0.26 1.16,0.67 1.56,1.28 0.43,0.64 0.63,1.32 0.63,2.11 0,0.85 -0.2,1.56 -0.63,2.23 -0.39,0.61 -0.93,1.04 -1.68,1.33 -0.54,0.21 -1.9,0.57 -5.03,0.57 l -0.77,-0.01 h -10.56 -3.07 v 3.07 23.31 3.07 h 3.07 4.16 3.07 v -3.07 -13.43 l 11.85,15.31 0.92,1.19 h 1.5 5.1 6.25 l -3.83,-4.94 z"
   id="path72" />
	
		<linearGradient
   id="SVGID_00000110460640638361638400000003302988895521125045_"
   gradientUnits="userSpaceOnUse"
   x1="172.9332"
   y1="267.8587"
   x2="549.87433"
   y2="373.74109">
		<stop
   offset="0"
   style="stop-color:#C2912C"
   id="stop73" />
		<stop
   offset="0.0185"
   style="stop-color:#C5972C"
   id="stop74" />
		<stop
   offset="0.1208"
   style="stop-color:#D4B32F"
   id="stop75" />
		<stop
   offset="0.2248"
   style="stop-color:#E1C930"
   id="stop76" />
		<stop
   offset="0.33"
   style="stop-color:#EAD931"
   id="stop77" />
		<stop
   offset="0.4369"
   style="stop-color:#EFE330"
   id="stop78" />
		<stop
   offset="0.5484"
   style="stop-color:#F1E630"
   id="stop79" />
		<stop
   offset="0.6263"
   style="stop-color:#EFE230"
   id="stop80" />
		<stop
   offset="0.7208"
   style="stop-color:#E8D531"
   id="stop81" />
		<stop
   offset="0.8239"
   style="stop-color:#DCC130"
   id="stop82" />
		<stop
   offset="0.9323"
   style="stop-color:#CDA52E"
   id="stop83" />
		<stop
   offset="1"
   style="stop-color:#C2912C"
   id="stop84" />
	</linearGradient>
	<path
   style="fill:url(#SVGID_00000110460640638361638400000003302988895521125045_)"
   d="m 384.79,300.72 c -3.17,-1.12 -7.92,-1.67 -14.54,-1.67 h -8.62 -3.07 v 3.07 20.75 3.07 h 3.07 3.99 3.07 v -3.07 -13.64 c 6.91,0.01 10.21,0.57 11.78,1.05 2.8,0.85 4.9,2.37 6.43,4.63 1.58,2.31 2.37,5.18 2.37,8.54 0,3.22 -0.7,5.84 -2.15,7.98 -1.39,2.06 -3.28,3.47 -5.77,4.28 -0.7,0.22 -2.12,0.54 -4.83,0.73 h -14.9 -3.07 v 3.07 0.19 2.3 1.63 3.07 h 3.07 13.21 c 5.73,0 10.15,-0.85 13.5,-2.6 3.39,-1.78 6.16,-4.54 8.24,-8.21 2.05,-3.6 3.1,-7.81 3.1,-12.49 0,-5.39 -1.31,-10.14 -3.9,-14.11 -2.61,-4.05 -6.31,-6.93 -10.98,-8.57 z"
   id="path84" />
	
		<linearGradient
   id="SVGID_00000029757163338211483470000009257911615870095779_"
   gradientUnits="userSpaceOnUse"
   x1="164.1801"
   y1="299.01959"
   x2="541.12128"
   y2="404.90201">
		<stop
   offset="0"
   style="stop-color:#C2912C"
   id="stop85" />
		<stop
   offset="0.0185"
   style="stop-color:#C5972C"
   id="stop86" />
		<stop
   offset="0.1208"
   style="stop-color:#D4B32F"
   id="stop87" />
		<stop
   offset="0.2248"
   style="stop-color:#E1C930"
   id="stop88" />
		<stop
   offset="0.33"
   style="stop-color:#EAD931"
   id="stop89" />
		<stop
   offset="0.4369"
   style="stop-color:#EFE330"
   id="stop90" />
		<stop
   offset="0.5484"
   style="stop-color:#F1E630"
   id="stop91" />
		<stop
   offset="0.6263"
   style="stop-color:#EFE230"
   id="stop92" />
		<stop
   offset="0.7208"
   style="stop-color:#E8D531"
   id="stop93" />
		<stop
   offset="0.8239"
   style="stop-color:#DCC130"
   id="stop94" />
		<stop
   offset="0.9323"
   style="stop-color:#CDA52E"
   id="stop95" />
		<stop
   offset="1"
   style="stop-color:#C2912C"
   id="stop96" />
	</linearGradient>
	<path
   style="fill:url(#SVGID_00000029757163338211483470000009257911615870095779_)"
   d="m 492.84,364.69 c -3.17,-1.12 -7.92,-1.67 -14.54,-1.67 h -8.62 -3.07 v 3.07 20.75 3.07 h 3.07 3.99 3.07 v -3.07 -13.64 c 6.91,0.01 10.21,0.57 11.78,1.05 2.8,0.85 4.9,2.37 6.43,4.63 1.58,2.31 2.37,5.18 2.37,8.54 0,3.22 -0.7,5.84 -2.15,7.98 -1.39,2.06 -3.28,3.47 -5.77,4.28 -0.7,0.22 -2.12,0.54 -4.83,0.73 h -14.9 -3.07 v 3.07 0.19 2.3 1.63 3.07 h 3.07 13.21 c 5.73,0 10.15,-0.85 13.5,-2.6 3.39,-1.78 6.16,-4.54 8.24,-8.21 2.05,-3.6 3.1,-7.81 3.1,-12.49 0,-5.39 -1.31,-10.14 -3.9,-14.11 -2.6,-4.04 -6.3,-6.93 -10.98,-8.57 z"
   id="path96" />
	
		<linearGradient
   id="SVGID_00000114065964645763338550000004478187563426961853_"
   gradientUnits="userSpaceOnUse"
   x1="157.78461"
   y1="321.7876"
   x2="534.72583"
   y2="427.67001">
		<stop
   offset="0"
   style="stop-color:#C2912C"
   id="stop97" />
		<stop
   offset="0.0185"
   style="stop-color:#C5972C"
   id="stop98" />
		<stop
   offset="0.1208"
   style="stop-color:#D4B32F"
   id="stop99" />
		<stop
   offset="0.2248"
   style="stop-color:#E1C930"
   id="stop100" />
		<stop
   offset="0.33"
   style="stop-color:#EAD931"
   id="stop101" />
		<stop
   offset="0.4369"
   style="stop-color:#EFE330"
   id="stop102" />
		<stop
   offset="0.5484"
   style="stop-color:#F1E630"
   id="stop103" />
		<stop
   offset="0.6263"
   style="stop-color:#EFE230"
   id="stop104" />
		<stop
   offset="0.7208"
   style="stop-color:#E8D531"
   id="stop105" />
		<stop
   offset="0.8239"
   style="stop-color:#DCC130"
   id="stop106" />
		<stop
   offset="0.9323"
   style="stop-color:#CDA52E"
   id="stop107" />
		<stop
   offset="1"
   style="stop-color:#C2912C"
   id="stop108" />
	</linearGradient>
	<path
   style="fill:url(#SVGID_00000114065964645763338550000004478187563426961853_)"
   d="m 383.32,363.02 c -5.73,0 -10.15,0.85 -13.5,2.6 -3.39,1.78 -6.16,4.54 -8.24,8.21 -2.05,3.6 -3.1,7.81 -3.1,12.49 0,5.39 1.31,10.14 3.9,14.11 2.62,4.03 6.32,6.92 10.99,8.56 3.17,1.12 7.92,1.67 14.54,1.67 h 8.62 3.07 v -3.07 -20.75 -3.07 h -3.07 -3.99 -3.07 v 3.07 13.64 c -6.91,-0.01 -10.21,-0.57 -11.78,-1.05 -2.8,-0.85 -4.9,-2.37 -6.43,-4.63 -1.58,-2.31 -2.37,-5.18 -2.37,-8.54 0,-3.22 0.7,-5.84 2.15,-7.98 1.39,-2.06 3.28,-3.47 5.77,-4.28 0.7,-0.22 2.12,-0.54 4.83,-0.73 h 14.9 3.07 v -3.07 -0.19 -2.3 -1.63 -3.07 h -3.07 -13.22 z"
   id="path108" />
	
		<linearGradient
   id="SVGID_00000054970889189240075790000012003192059725755305_"
   gradientUnits="userSpaceOnUse"
   x1="183.92261"
   y1="228.7363"
   x2="560.86377"
   y2="334.61859">
		<stop
   offset="0"
   style="stop-color:#C2912C"
   id="stop109" />
		<stop
   offset="0.0185"
   style="stop-color:#C5972C"
   id="stop110" />
		<stop
   offset="0.1208"
   style="stop-color:#D4B32F"
   id="stop111" />
		<stop
   offset="0.2248"
   style="stop-color:#E1C930"
   id="stop112" />
		<stop
   offset="0.33"
   style="stop-color:#EAD931"
   id="stop113" />
		<stop
   offset="0.4369"
   style="stop-color:#EFE330"
   id="stop114" />
		<stop
   offset="0.5484"
   style="stop-color:#F1E630"
   id="stop115" />
		<stop
   offset="0.6263"
   style="stop-color:#EFE230"
   id="stop116" />
		<stop
   offset="0.7208"
   style="stop-color:#E8D531"
   id="stop117" />
		<stop
   offset="0.8239"
   style="stop-color:#DCC130"
   id="stop118" />
		<stop
   offset="0.9323"
   style="stop-color:#CDA52E"
   id="stop119" />
		<stop
   offset="1"
   style="stop-color:#C2912C"
   id="stop120" />
	</linearGradient>
	<path
   style="fill:url(#SVGID_00000054970889189240075790000012003192059725755305_)"
   d="m 538.54,304.37 c -1.91,-2.31 -4.41,-3.87 -7.43,-4.62 -1.93,-0.48 -5.22,-0.71 -10.35,-0.71 h -8.28 -3.02 v 10.18 h 3.03 4.16 6 1.35 c 3.28,0 4.54,0.36 4.93,0.51 0.66,0.26 1.15,0.67 1.55,1.29 0.43,0.66 0.63,1.36 0.63,2.16 0,0.83 -0.21,1.56 -0.63,2.22 -0.4,0.61 -0.93,1.03 -1.66,1.32 -0.54,0.21 -1.92,0.57 -5.12,0.57 l -2.45,-0.03 h -8.74 -3.02 v 29.43 h 3.02 4.16 3.07 v -3.07 -16.24 c 5.48,0 9.03,-0.24 11.18,-0.76 3.24,-0.79 5.84,-2.36 7.72,-4.67 1.92,-2.35 2.9,-5.3 2.9,-8.78 -0.02,-3.47 -1.02,-6.43 -3,-8.8 z"
   id="path120" />
	
		<linearGradient
   id="SVGID_00000050643868160181732110000002311911755609217947_"
   gradientUnits="userSpaceOnUse"
   x1="160.854"
   y1="310.86041"
   x2="537.79523"
   y2="416.74271">
		<stop
   offset="0"
   style="stop-color:#C2912C"
   id="stop121" />
		<stop
   offset="0.0185"
   style="stop-color:#C5972C"
   id="stop122" />
		<stop
   offset="0.1208"
   style="stop-color:#D4B32F"
   id="stop123" />
		<stop
   offset="0.2248"
   style="stop-color:#E1C930"
   id="stop124" />
		<stop
   offset="0.33"
   style="stop-color:#EAD931"
   id="stop125" />
		<stop
   offset="0.4369"
   style="stop-color:#EFE330"
   id="stop126" />
		<stop
   offset="0.5484"
   style="stop-color:#F1E630"
   id="stop127" />
		<stop
   offset="0.6263"
   style="stop-color:#EFE230"
   id="stop128" />
		<stop
   offset="0.7208"
   style="stop-color:#E8D531"
   id="stop129" />
		<stop
   offset="0.8239"
   style="stop-color:#DCC130"
   id="stop130" />
		<stop
   offset="0.9323"
   style="stop-color:#CDA52E"
   id="stop131" />
		<stop
   offset="1"
   style="stop-color:#C2912C"
   id="stop132" />
	</linearGradient>
	<path
   style="fill:url(#SVGID_00000050643868160181732110000002311911755609217947_)"
   d="m 433.8,362.5 h -3.07 v 3.07 25.07 c 0,4.17 -0.25,5.43 -0.32,5.71 -0.28,1.03 -0.7,1.9 -1.26,2.58 -0.56,0.69 -1.24,1.21 -2.08,1.59 -0.86,0.4 -1.73,0.6 -2.67,0.6 -1.13,0 -2.24,-0.27 -3.4,-0.82 -1.06,-0.5 -1.81,-1.08 -2.26,-1.73 -0.47,-0.69 -0.78,-1.62 -0.92,-2.75 -0.05,-0.3 -0.15,-1.26 -0.15,-5.18 v -25.07 -0.44 -2.63 h -3.07 -4.16 -0.72 -2.35 v 2.63 0 0.44 25.05 c 0,4.64 0.29,7.71 0.9,9.67 1.01,3.29 3.04,5.99 6.03,7.98 2.89,1.93 6.36,2.91 10.32,2.91 3.77,0 7.07,-1.07 9.79,-3.19 2.66,-2.07 4.47,-4.58 5.39,-7.46 0.83,-2.62 1.23,-5.86 1.23,-9.92 v -25.05 -3.07 h -3.07 -4.16 z"
   id="path132" />
	
		<linearGradient
   id="SVGID_00000160892229351893844420000005586754319641890999_"
   gradientUnits="userSpaceOnUse"
   x1="153.10451"
   y1="338.4487"
   x2="530.04572"
   y2="444.33109">
		<stop
   offset="0"
   style="stop-color:#C2912C"
   id="stop133" />
		<stop
   offset="0.0185"
   style="stop-color:#C5972C"
   id="stop134" />
		<stop
   offset="0.1208"
   style="stop-color:#D4B32F"
   id="stop135" />
		<stop
   offset="0.2248"
   style="stop-color:#E1C930"
   id="stop136" />
		<stop
   offset="0.33"
   style="stop-color:#EAD931"
   id="stop137" />
		<stop
   offset="0.4369"
   style="stop-color:#EFE330"
   id="stop138" />
		<stop
   offset="0.5484"
   style="stop-color:#F1E630"
   id="stop139" />
		<stop
   offset="0.6263"
   style="stop-color:#EFE230"
   id="stop140" />
		<stop
   offset="0.7208"
   style="stop-color:#E8D531"
   id="stop141" />
		<stop
   offset="0.8239"
   style="stop-color:#DCC130"
   id="stop142" />
		<stop
   offset="0.9323"
   style="stop-color:#CDA52E"
   id="stop143" />
		<stop
   offset="1"
   style="stop-color:#C2912C"
   id="stop144" />
	</linearGradient>
	<path
   style="fill:url(#SVGID_00000160892229351893844420000005586754319641890999_)"
   d="m 226.83,322.17 c -4.58,-1.62 -11.45,-2.41 -21,-2.41 h -4.32 c -6.93,0 -12.55,5.62 -12.55,12.55 v 21.86 4.43 h 4.43 5.76 4.43 v -4.43 -19.71 c 9.98,0.01 14.76,0.83 17.01,1.52 4.04,1.23 7.08,3.42 9.29,6.69 2.28,3.33 3.43,7.48 3.43,12.34 0,4.66 -1.01,8.43 -3.1,11.53 -2.01,2.98 -4.74,5.01 -8.33,6.19 -1.01,0.32 -3.06,0.78 -6.97,1.06 h -21.52 -4.43 v 2.25 c 0,6.93 5.62,12.55 12.55,12.55 h 10.96 c 8.28,0 14.66,-1.23 19.5,-3.76 4.9,-2.57 8.9,-6.56 11.9,-11.86 2.97,-5.2 4.47,-11.28 4.47,-18.04 0,-7.79 -1.89,-14.65 -5.63,-20.39 -3.78,-5.82 -9.13,-9.99 -15.88,-12.37 z"
   id="path144" />
	
		<linearGradient
   id="SVGID_00000031922337490668292620000007895366863523290269_"
   gradientUnits="userSpaceOnUse"
   x1="159.1936"
   y1="316.77161"
   x2="536.13483"
   y2="422.65399">
		<stop
   offset="0"
   style="stop-color:#C2912C"
   id="stop145" />
		<stop
   offset="0.0185"
   style="stop-color:#C5972C"
   id="stop146" />
		<stop
   offset="0.1208"
   style="stop-color:#D4B32F"
   id="stop147" />
		<stop
   offset="0.2248"
   style="stop-color:#E1C930"
   id="stop148" />
		<stop
   offset="0.33"
   style="stop-color:#EAD931"
   id="stop149" />
		<stop
   offset="0.4369"
   style="stop-color:#EFE330"
   id="stop150" />
		<stop
   offset="0.5484"
   style="stop-color:#F1E630"
   id="stop151" />
		<stop
   offset="0.6263"
   style="stop-color:#EFE230"
   id="stop152" />
		<stop
   offset="0.7208"
   style="stop-color:#E8D531"
   id="stop153" />
		<stop
   offset="0.8239"
   style="stop-color:#DCC130"
   id="stop154" />
		<stop
   offset="0.9323"
   style="stop-color:#CDA52E"
   id="stop155" />
		<stop
   offset="1"
   style="stop-color:#C2912C"
   id="stop156" />
	</linearGradient>
	<path
   style="fill:url(#SVGID_00000031922337490668292620000007895366863523290269_)"
   d="m 299.97,319.77 h -10.96 c -8.28,0 -14.66,1.23 -19.5,3.76 -4.9,2.57 -8.9,6.56 -11.9,11.86 -2.97,5.2 -4.47,11.28 -4.47,18.04 0,7.79 1.89,14.65 5.63,20.39 3.78,5.83 9.13,9.99 15.88,12.37 4.58,1.62 11.45,2.41 21,2.41 h 4.32 c 6.93,0 12.55,-5.62 12.55,-12.55 v -21.86 -4.43 h -4.43 -5.76 -4.43 v 4.43 19.71 c -9.98,-0.01 -14.76,-0.83 -17.01,-1.52 -4.04,-1.23 -7.08,-3.42 -9.29,-6.69 -2.28,-3.33 -3.43,-7.48 -3.43,-12.34 0,-4.66 1.01,-8.43 3.1,-11.53 2.01,-2.98 4.74,-5.01 8.33,-6.19 1.01,-0.32 3.06,-0.78 6.97,-1.06 h 21.52 4.43 v -2.25 c 0.01,-6.93 -5.61,-12.55 -12.55,-12.55 z"
   id="path156" />
	
		<linearGradient
   id="SVGID_00000183959736784535156070000017409691393887995565_"
   gradientUnits="userSpaceOnUse"
   x1="156.14909"
   y1="327.60999"
   x2="533.09027"
   y2="433.4924">
		<stop
   offset="0"
   style="stop-color:#C2912C"
   id="stop157" />
		<stop
   offset="0.0185"
   style="stop-color:#C5972C"
   id="stop158" />
		<stop
   offset="0.1208"
   style="stop-color:#D4B32F"
   id="stop159" />
		<stop
   offset="0.2248"
   style="stop-color:#E1C930"
   id="stop160" />
		<stop
   offset="0.33"
   style="stop-color:#EAD931"
   id="stop161" />
		<stop
   offset="0.4369"
   style="stop-color:#EFE330"
   id="stop162" />
		<stop
   offset="0.5484"
   style="stop-color:#F1E630"
   id="stop163" />
		<stop
   offset="0.6263"
   style="stop-color:#EFE230"
   id="stop164" />
		<stop
   offset="0.7208"
   style="stop-color:#E8D531"
   id="stop165" />
		<stop
   offset="0.8239"
   style="stop-color:#DCC130"
   id="stop166" />
		<stop
   offset="0.9323"
   style="stop-color:#CDA52E"
   id="stop167" />
		<stop
   offset="1"
   style="stop-color:#C2912C"
   id="stop168" />
	</linearGradient>
	<path
   style="fill:url(#SVGID_00000183959736784535156070000017409691393887995565_)"
   d="m 300.56,298.01 h -99.64 c -18.6,0 -33.73,15.13 -33.73,33.72 v 44.9 c 0,18.6 15.13,33.72 33.73,33.72 h 99.64 c 18.6,0 33.73,-15.13 33.73,-33.72 v -44.9 c 0,-18.59 -15.13,-33.72 -33.73,-33.72 z m 24.62,78.62 c 0,13.58 -11.05,24.62 -24.62,24.62 h -99.64 c -13.58,0 -24.62,-11.04 -24.62,-24.62 v -44.9 c 0,-13.58 11.05,-24.62 24.62,-24.62 h 99.64 c 13.58,0 24.62,11.04 24.62,24.62 z"
   id="path168" />
</g>
</svg>
