<?xml version="1.0" encoding="UTF-8" standalone="no"?>
<svg
   viewBox="-8 -8 528 528"
   version="1.1"
   id="svg1"
   width="528"
   height="528"
   xmlns="http://www.w3.org/2000/svg"
   xmlns:svg="http://www.w3.org/2000/svg">
  <defs
     id="defs1" />
  <!-- Контурная версия иконки Telegram, без обрезанных краев и с ровной окружностью -->
  <circle
     cx="256"
     cy="256"
     r="248"
     fill="none"
     stroke="#ffffff"
     stroke-width="32"
     id="circle1" />
  <path
     d="m 371,184.7 c -3.7,39.2 -19.9,134.4 -28.1,178.3 -3.5,18.6 -10.3,24.8 -16.9,25.4 -14.4,1.3 -25.3,-9.5 -39.3,-18.7 -21.8,-14.3 -34.2,-23.2 -55.3,-37.2 -24.5,-16.1 -8.6,-25 5.3,-39.5 3.7,-3.8 67.1,-61.5 68.3,-66.7 0.2,-0.7 0.3,-3.1 -1.2,-4.4 -1.5,-1.3 -3.6,-0.8 -5.1,-0.5 q -3.3,0.7 -104.6,69.1 -14.8,10.2 -26.9,9.9 c -8.9,-0.2 -25.9,-5 -38.6,-9.1 -15.5,-5 -27.9,-7.7 -26.8,-16.3 q 0.8,-6.7 18.5,-13.7 108.4,-47.2 144.6,-62.3 c 68.9,-28.6 83.2,-33.6 92.5,-33.8 2.1,0 6.6,0.5 9.6,2.9 a 10.5,10.5 0 0 1 3.5,6.7 43.8,43.8 0 0 1 0.5,9.9 z"
     fill="none"
     stroke="#ffffff"
     stroke-width="32"
     id="path1" />
</svg>
