<svg width="81" height="20" viewBox="0 0 81 20" fill="none" xmlns="http://www.w3.org/2000/svg">
<g clip-path="url(#clip0_1968_8311)">
<mask id="mask0_1968_8311" style="mask-type:luminance" maskUnits="userSpaceOnUse" x="0" y="0" width="81" height="20">
<path d="M81 0H0V20H81V0Z" fill="white"/>
</mask>
<g mask="url(#mask0_1968_8311)">
<path d="M48.9694 13.0242H50.3603V14.1601H48.5713C48.3918 14.1602 48.2142 14.1245 48.0483 14.0553C47.8827 13.986 47.7324 13.8846 47.606 13.7567C47.4799 13.6289 47.3803 13.4773 47.3129 13.3106C47.2456 13.144 47.2119 12.9656 47.2138 12.7858V5.99256H48.5566V7.66853H50.0444V8.80448H48.5566V12.6071C48.5566 12.7177 48.6003 12.8238 48.6785 12.902C48.7567 12.9803 48.8625 13.0242 48.973 13.0242H48.9694ZM34.0584 11.7579C34.0723 11.9439 34.0476 12.1307 33.9861 12.3067C33.9245 12.4827 33.8271 12.6441 33.7005 12.7808C33.5738 12.9174 33.4202 13.0265 33.2495 13.101C33.0789 13.1755 32.8946 13.214 32.7084 13.214C32.5222 13.214 32.3379 13.1755 32.1673 13.101C31.9964 13.0265 31.843 12.9174 31.7161 12.7808C31.5895 12.6441 31.4923 12.4827 31.4308 12.3067C31.369 12.1307 31.3445 11.9439 31.3581 11.7579V7.66109H30.0157V11.7579C30.0293 11.9439 30.0048 12.1307 29.943 12.3067C29.8815 12.4827 29.7844 12.6441 29.6577 12.7808C29.5308 12.9174 29.3774 13.0265 29.2065 13.101C29.0359 13.1755 28.8516 13.214 28.6654 13.214C28.4792 13.214 28.2949 13.1755 28.1243 13.101C27.9536 13.0265 27.8 12.9174 27.6733 12.7808C27.5466 12.6441 27.4494 12.4827 27.3878 12.3067C27.3262 12.1307 27.3015 11.9439 27.3153 11.7579V7.66109H25.0391V8.79703H25.9578V11.7132C25.9578 13.2551 26.9471 14.2719 28.4608 14.2719C28.9106 14.2983 29.3588 14.197 29.7537 13.9796C30.1484 13.7621 30.4738 13.4374 30.6926 13.0428C30.91 13.4383 31.2354 13.7638 31.6304 13.9814C32.0254 14.1989 32.4741 14.2997 32.9241 14.2719C34.4417 14.2719 35.4271 13.2551 35.4271 11.7132V7.66853H34.0696L34.0584 11.7579ZM44.9895 5.12106C44.8812 5.11362 44.7727 5.12853 44.6703 5.16495C44.5678 5.20134 44.474 5.25842 44.3947 5.33264C44.3154 5.40687 44.2522 5.49664 44.2088 5.59639C44.1656 5.69614 44.1431 5.80373 44.1431 5.91248C44.1431 6.02123 44.1656 6.12884 44.2088 6.22856C44.2522 6.32831 44.3154 6.41809 44.3947 6.49231C44.474 6.56653 44.5678 6.62362 44.6703 6.66003C44.7727 6.69642 44.8812 6.71137 44.9895 6.70392C45.0981 6.71137 45.2066 6.69642 45.3091 6.66003C45.4115 6.62362 45.5053 6.56653 45.5846 6.49231C45.664 6.41809 45.7272 6.32831 45.7706 6.22856C45.8137 6.12884 45.836 6.02123 45.836 5.91248C45.836 5.80373 45.8137 5.69614 45.7706 5.59639C45.7272 5.49664 45.664 5.40687 45.5846 5.33264C45.5053 5.25842 45.4115 5.20134 45.3091 5.16495C45.2066 5.12853 45.0981 5.11362 44.9895 5.12106ZM40.2325 7.54937C39.8258 7.53375 39.4222 7.62698 39.0632 7.81942C38.7044 8.01187 38.4032 8.29662 38.1908 8.64434V5.02795H36.8442V14.1601H38.1908V10.3613C38.1908 9.31845 38.8341 8.63314 39.8348 8.63314C40.8351 8.63314 41.4414 9.31845 41.4414 10.3613V14.1601H42.7989V10.1751C42.8184 9.82992 42.7655 9.48453 42.6441 9.16095C42.5228 8.83734 42.3355 8.54262 42.0938 8.29556C41.8525 8.04853 41.5622 7.85459 41.2418 7.72612C40.9214 7.59762 40.5777 7.53742 40.2325 7.54937ZM44.324 14.1601H45.6704V7.66853H44.324V14.1601ZM73.7067 10.9162V14.1601H72.3603V13.2626C72.0591 13.5934 71.6903 13.8554 71.2789 14.0308C70.8675 14.2063 70.4232 14.291 69.9762 14.2793C68.1611 14.2793 66.8297 12.8678 66.8297 10.9274C66.8297 8.98698 68.2655 7.57542 70.2663 7.57542C72.2673 7.57542 73.7067 8.98698 73.7067 10.9274V10.9162ZM72.3603 10.9274C72.3386 10.522 72.1986 10.1318 71.9578 9.80517C71.7173 9.4785 71.3861 9.22959 71.0058 9.08917C70.6253 8.94876 70.2123 8.92298 69.8173 9.01506C69.4226 9.10712 69.0632 9.31298 68.7838 9.60723C68.5046 9.90145 68.3172 10.2712 68.2454 10.6707C68.1736 11.0703 68.2201 11.4822 68.3793 11.8555C68.5385 12.2289 68.8035 12.5473 69.1417 12.7716C69.4796 12.9958 69.8757 13.116 70.2813 13.1173C70.5641 13.1199 70.8447 13.0641 71.1052 12.9536C71.3657 12.843 71.601 12.6799 71.7958 12.4746C71.9909 12.2692 72.1415 12.0259 72.2387 11.7597C72.3358 11.4936 72.3773 11.2103 72.3603 10.9274ZM58.8517 6.24581L59.4281 6.9907C60.2952 6.31298 61.3632 5.94484 62.4633 5.94484C63.563 5.94484 64.6313 6.31298 65.4981 6.9907L66.0746 6.24581C65.0397 5.44731 63.7698 5.01428 62.4633 5.01428C61.1567 5.01428 59.8866 5.44731 58.8517 6.24581ZM65.9184 10.9758C65.9376 11.4131 65.8664 11.8496 65.7094 12.2581C65.5527 12.6666 65.3133 13.0383 65.0065 13.35C64.6998 13.6618 64.3321 13.9068 63.9266 14.0699C63.5207 14.233 63.0859 14.3106 62.6492 14.2979C62.2203 14.3073 61.7947 14.2213 61.403 14.0461C61.0114 13.8709 60.6634 13.6109 60.384 13.2849V16.8156H59.0412V10.9311C59.0412 8.97953 60.477 7.57914 62.478 7.57914C62.932 7.55834 63.3852 7.63181 63.8091 7.79498C64.2333 7.95814 64.6191 8.20745 64.9422 8.5272C65.2654 8.84695 65.519 9.23025 65.6871 9.65295C65.855 10.0756 65.9337 10.5286 65.9184 10.9833V10.9758ZM64.5347 10.9423C64.5136 10.5353 64.3739 10.1435 64.1325 9.81539C63.8909 9.48731 63.5588 9.23737 63.1769 9.09656C62.795 8.95578 62.38 8.93031 61.9839 9.02334C61.5876 9.11637 61.2274 9.32378 60.9479 9.61989C60.6682 9.916 60.4814 10.2878 60.411 10.6891C60.3403 11.0904 60.389 11.5037 60.5507 11.8777C60.7124 12.2516 60.9802 12.5698 61.3209 12.7928C61.6613 13.0159 62.0599 13.1339 62.4669 13.1322C62.7491 13.1343 63.0289 13.0782 63.2888 12.9673C63.5485 12.8564 63.7826 12.6932 63.9767 12.4878C64.1707 12.2823 64.3204 12.0391 64.4164 11.7732C64.5125 11.5073 64.5528 11.2244 64.5347 10.9423ZM79.6503 7.68714V11.2104C79.6503 12.2533 79.0031 12.9386 78.0027 12.9386C77.0021 12.9386 76.3958 12.2346 76.3958 11.1918V7.66853H74.1309V8.80448H75.0531V11.3743C75.0325 11.7176 75.0831 12.0614 75.2023 12.384C75.3217 12.7065 75.5065 13.0006 75.7456 13.2476C75.9844 13.4946 76.2722 13.6891 76.5904 13.8186C76.9085 13.9482 77.2501 14.0099 77.5936 14C78.0008 14.0171 78.4055 13.9263 78.7668 13.7366C79.1278 13.547 79.4326 13.2653 79.6503 12.9199V14.1341C79.6503 15.1769 79.0179 15.8361 78.0398 15.8361C77.6801 15.8496 77.328 15.7321 77.0483 15.5054C76.7685 15.2788 76.5804 14.9583 76.5186 14.6034H75.254C75.3581 15.2726 75.7061 15.8794 76.231 16.3066C76.7557 16.7338 77.4201 16.951 78.0957 16.9162C79.8326 16.9162 81.0078 15.7691 81.0078 14.0559V7.66853L79.6503 7.68714ZM57.9963 10.946C57.9952 11.0835 57.9815 11.2207 57.9554 11.3557H52.4134C52.4813 11.8709 52.7366 12.3429 53.1307 12.6811C53.5246 13.0193 54.0295 13.1999 54.5484 13.1881C54.9166 13.1901 55.2785 13.0926 55.5961 12.9058C55.9137 12.7189 56.1748 12.4498 56.3524 12.1266H57.7731C57.5181 12.7751 57.0719 13.3304 56.4938 13.7183C55.9156 14.1063 55.2331 14.3085 54.5372 14.2979C52.5325 14.2979 51.0709 12.8864 51.0709 10.946C51.0709 9.00559 52.5325 7.59403 54.5372 7.59403C54.9893 7.5735 55.4408 7.64625 55.8636 7.80773C56.2867 7.9692 56.6716 8.21598 56.9953 8.53273C57.3191 8.84948 57.5743 9.22945 57.7452 9.64909C57.9161 10.0687 57.9988 10.519 57.9888 10.9721L57.9963 10.946ZM56.6833 10.3389C56.5703 9.86167 56.2961 9.4382 55.907 9.14023C55.5179 8.84225 55.038 8.68812 54.5484 8.70392C54.0649 8.69345 53.5922 8.85042 53.2109 9.14828C52.8293 9.44614 52.5621 9.86667 52.4543 10.3389H56.6833Z" fill="white"/>
<path d="M12.2895 10.0372C12.2895 11.4599 11.315 12.4916 9.97977 12.4916C8.64452 12.4916 7.65145 11.4599 7.65145 10.0372C7.65145 8.61453 8.60731 7.58658 9.97977 7.58658C11.3522 7.58658 12.2895 8.61825 12.2895 10.0372ZM19.9737 4.40594V15.5791C19.9737 16.1577 19.8598 16.7307 19.6387 17.2652C19.4176 17.7998 19.0935 18.2855 18.6849 18.6946C18.2763 19.1038 17.7913 19.4283 17.2575 19.6497C16.7236 19.8711 16.1515 19.9851 15.5737 19.9851H4.41563C3.24867 19.9851 2.12951 19.5209 1.30435 18.6946C0.479193 17.8683 0.015625 16.7477 0.015625 15.5791V4.40594C0.015625 3.23742 0.479193 2.11676 1.30435 1.29048C2.12951 0.4642 3.24867 0 4.41563 0H15.5737C16.1515 0 16.7236 0.113966 17.2575 0.335386C17.7913 0.556806 18.2763 0.881347 18.6849 1.29048C19.0935 1.69961 19.4176 2.18532 19.6387 2.71987C19.8598 3.25442 19.9737 3.82736 19.9737 4.40594ZM14.045 10.0857C14.0607 9.55081 13.9664 9.01845 13.7679 8.5217C13.5693 8.02495 13.2708 7.57442 12.8908 7.19817C12.5109 6.82192 12.0577 6.52797 11.5595 6.33467C11.0612 6.14136 10.5285 6.05278 9.99463 6.07447C7.64402 6.07447 5.94054 7.73928 5.94054 10.0372V16.9162H7.65145V12.9609C7.98205 13.2983 8.37775 13.5647 8.81448 13.7439C9.25121 13.9233 9.71982 14.0116 10.1918 14.0037C10.7066 14.0174 11.2187 13.925 11.6964 13.7322C12.174 13.5394 12.607 13.2503 12.9683 12.8828C13.3297 12.5154 13.6117 12.0775 13.797 11.5963C13.9822 11.1151 14.0666 10.6009 14.045 10.0857ZM14.3054 4.61453L14.2235 4.55122C13.0067 3.62094 11.5182 3.117 9.9872 3.117C8.45625 3.117 6.96774 3.62094 5.75087 4.55122L5.67277 4.61453L6.45009 5.6015V5.62011L6.53192 5.55678C7.51381 4.78661 8.72508 4.36811 9.97234 4.36811C11.2196 4.36811 12.4309 4.78661 13.4127 5.55678L13.4946 5.62383L14.3054 4.61453Z" fill="white"/>
</g>
</g>
<defs>
<clipPath id="clip0_1968_8311">
<rect width="81" height="20" fill="white"/>
</clipPath>
</defs>
</svg>
