<svg xmlns="http://www.w3.org/2000/svg" viewBox="0 0 576 512">
  <!-- Контурная версия иконки YouTube, без отступов и белая -->
  <path d="M549.7 124.1c-6.3-23.7-24.8-42.3-48.3-48.6C458.8 64 288 64 288 64S117.2 64 74.6 75.5c-23.5 6.3-42 24.9-48.3 48.6-11.4 42.9-11.4 132.3-11.4 132.3s0 89.4 11.4 132.3c6.3 23.7 24.8 41.5 48.3 47.8C117.2 448 288 448 288 448s170.8 0 213.4-11.5c23.5-6.3 42-24.2 48.3-47.8 11.4-42.9 11.4-132.3 11.4-132.3s0-89.4-11.4-132.3z"
    fill="none" stroke="#ffffff" stroke-width="32"/>
  <path d="M232.2 337.6L374.9 256 232.2 174.4V337.6z"
    fill="none" stroke="#ffffff" stroke-width="32"/>
</svg>
